<svg xmlns="http://www.w3.org/2000/svg" width="1200" height="752" viewBox="0 0 1200 752" role="img" aria-labelledby="title desc">
  <title id="title">Hill Climber result: promoted</title>
  <desc id="desc">Baseline and candidate scores, selected development route, private holdout verdict, usage, and application state.</desc>
  <style>
    text { font-family: Inter, ui-sans-serif, -apple-system, BlinkMacSystemFont, "Segoe UI", sans-serif; }
    .eyebrow { fill: #32d583; font-size: 13px; font-weight: 800; letter-spacing: 2.2px; }
    .title { fill: #f7f9fc; font-size: 34px; font-weight: 760; }
    .task { fill: #aab4c5; font-size: 15px; }
    .label { font-size: 11px; font-weight: 800; letter-spacing: 1.2px; }
    .muted { fill: #8b98ad; font-size: 12px; }
    .candidate { fill: #e8edf5; font-size: 14px; font-weight: 700; }
    .score { fill: #f7f9fc; font-size: 32px; font-weight: 760; }
    .score-small { fill: #f7f9fc; font-size: 26px; font-weight: 760; }
    .body { fill: #c6cfdd; font-size: 15px; }
    .metric { fill: #f7f9fc; font-size: 17px; font-weight: 700; }
  </style>
  <rect width="1200" height="752" rx="24" fill="#081120"/>
  <path d="M0 0h1200v6H0z" fill="#32d583"/>
  <text x="40" y="48" class="eyebrow">HILL CLIMBER · VERIFIED RUN REPORT</text>
  <text x="40" y="92" class="title">5 routes in. One evidence-backed outcome.</text>
  <rect x="1016" y="35" width="144" height="42" rx="21" fill="#32d583" fill-opacity=".13" stroke="#32d583"/>
  <text x="1088" y="61" class="label" fill="#32d583" text-anchor="middle">PROMOTED</text>
  <text x="40" y="124" class="task">Improve the deterministic demo score</text>

  <rect x="40" y="154" width="1120" height="132" rx="18" fill="#0d1728" stroke="#26344c"/>
  <text x="64" y="184" class="label" fill="#8b98ad">DEVELOPMENT SCORE</text>
  <text x="64" y="236" class="score">0</text>
  <text x="159" y="232" fill="#59657a" font-size="28">→</text>
  <text x="210" y="236" class="score" fill="#32d583">5</text>
  <text x="64" y="263" class="muted">baseline</text>
  <text x="210" y="263" class="muted">r01-c02</text>
  <path d="M420 180v80" stroke="#26344c"/>
  <text x="456" y="201" class="label" fill="#8b98ad">PRIVATE HOLDOUT</text>
  <text x="456" y="238" class="metric" fill="#32d583">PROMOTED</text>
  <text x="456" y="263" class="muted">baseline 0 → candidate 5</text>
  <path d="M810 180v80" stroke="#26344c"/>
  <text x="846" y="201" class="label" fill="#8b98ad">SOURCE CHECKOUT</text>
  <text x="846" y="238" class="metric">YES — PATCH APPLIED</text>
  <text x="846" y="263" class="muted">round_budget_exhausted</text>

  <text x="40" y="326" class="label" fill="#8b98ad">CANDIDATE ROUTES · 5 ATTEMPTED</text>
  
      <g>
        <rect x="40" y="352" width="208" height="142" rx="14" fill="#111a2c" stroke="#59657a" stroke-width="1"/>
        <circle cx="60" cy="375" r="5" fill="#59657a"/>
        <text x="74" y="380" class="candidate">r01-c01</text>
        <text x="56" y="410" class="muted">root-cause</text>
        <text x="56" y="453" class="score-small">1</text>
        <text x="56" y="476" class="label" fill="#59657a">REJECTED</text>
      </g>
      <g>
        <rect x="264" y="352" width="208" height="142" rx="14" fill="#111a2c" stroke="#32d583" stroke-width="2"/>
        <circle cx="284" cy="375" r="5" fill="#32d583"/>
        <text x="298" y="380" class="candidate">r01-c02</text>
        <text x="280" y="410" class="muted">edge-coverage</text>
        <text x="280" y="453" class="score-small">5</text>
        <text x="280" y="476" class="label" fill="#32d583">DEV WINNER</text>
      </g>
      <g>
        <rect x="488" y="352" width="208" height="142" rx="14" fill="#111a2c" stroke="#59657a" stroke-width="1"/>
        <circle cx="508" cy="375" r="5" fill="#59657a"/>
        <text x="522" y="380" class="candidate">r01-c03</text>
        <text x="504" y="410" class="muted">simplify</text>
        <text x="504" y="453" class="score-small">2</text>
        <text x="504" y="476" class="label" fill="#59657a">REJECTED</text>
      </g>
      <g>
        <rect x="712" y="352" width="208" height="142" rx="14" fill="#111a2c" stroke="#59657a" stroke-width="1"/>
        <circle cx="732" cy="375" r="5" fill="#59657a"/>
        <text x="746" y="380" class="candidate">r01-c04</text>
        <text x="728" y="410" class="muted">alternative</text>
        <text x="728" y="453" class="score-small">3</text>
        <text x="728" y="476" class="label" fill="#59657a">REJECTED</text>
      </g>
      <g>
        <rect x="936" y="352" width="208" height="142" rx="14" fill="#111a2c" stroke="#59657a" stroke-width="1"/>
        <circle cx="956" cy="375" r="5" fill="#59657a"/>
        <text x="970" y="380" class="candidate">r01-c05</text>
        <text x="952" y="410" class="muted">adversarial</text>
        <text x="952" y="453" class="score-small">4</text>
        <text x="952" y="476" class="label" fill="#59657a">REJECTED</text>
      </g>

  <rect x="40" y="528" width="1120" height="154" rx="18" fill="#0d1728" stroke="#32d583" stroke-opacity=".8"/>
  <circle cx="72" cy="566" r="10" fill="#32d583"/>
  <text x="96" y="573" class="metric">Holdout verified the winner</text>
  <text x="64" y="605" class="body">The promoted patch cleared development selection and the private holdout.</text>
  <text x="64" y="648" class="label" fill="#8b98ad">CANDIDATES</text>
  <text x="166" y="648" class="metric">5</text>
  <text x="260" y="648" class="label" fill="#8b98ad">KEPT</text>
  <text x="318" y="648" class="metric">1</text>
  <text x="390" y="648" class="label" fill="#8b98ad">REJECTED</text>
  <text x="480" y="648" class="metric">4</text>
  <text x="570" y="648" class="label" fill="#8b98ad">TOKENS</text>
  <text x="642" y="648" class="metric">150</text>
  <text x="750" y="648" class="label" fill="#8b98ad">WALL</text>
  <text x="802" y="648" class="metric">2.195s</text>
  <text x="930" y="648" class="label" fill="#8b98ad">ROUNDS</text>
  <text x="1005" y="648" class="metric">1</text>
  <text x="40" y="728" class="muted">experiment experiment · 2026-08-24T06:29:42.202Z · machine receipt: receipt.json</text>
</svg>
